<mxfile host="Electron" modified="2024-04-24T10:09:10.780Z" agent="Mozilla/5.0 (Windows NT 10.0; Win64; x64) AppleWebKit/537.36 (KHTML, like Gecko) draw.io/24.2.5 Chrome/120.0.6099.109 Electron/28.1.0 Safari/537.36" etag="LfGeWe1OIa4k7lvj4WiU" version="24.2.5" type="device">
  <diagram name="Page-1" id="DqhPQZiUIzihV6j5PjWO">
    <mxGraphModel dx="1221" dy="823" grid="1" gridSize="10" guides="1" tooltips="1" connect="1" arrows="1" fold="1" page="1" pageScale="1" pageWidth="850" pageHeight="1100" math="0" shadow="0">
      <root>
        <mxCell id="0" />
        <mxCell id="1" parent="0" />
        <mxCell id="Ry5fizoQan9zgRVknk1M-1" value="Container" style="swimlane;whiteSpace=wrap;html=1;" vertex="1" parent="1">
          <mxGeometry x="350" y="80" width="200" height="150" as="geometry" />
        </mxCell>
        <mxCell id="Ry5fizoQan9zgRVknk1M-25" value="+ getIterator() :Iterator" style="text;html=1;align=center;verticalAlign=middle;resizable=0;points=[];autosize=1;strokeColor=none;fillColor=none;" vertex="1" parent="Ry5fizoQan9zgRVknk1M-1">
          <mxGeometry x="10" y="70" width="140" height="30" as="geometry" />
        </mxCell>
        <mxCell id="Ry5fizoQan9zgRVknk1M-2" value="" style="endArrow=none;html=1;rounded=0;exitX=0;exitY=0.25;exitDx=0;exitDy=0;entryX=1;entryY=0.25;entryDx=0;entryDy=0;" edge="1" parent="1" source="Ry5fizoQan9zgRVknk1M-1" target="Ry5fizoQan9zgRVknk1M-1">
          <mxGeometry width="50" height="50" relative="1" as="geometry">
            <mxPoint x="400" y="450" as="sourcePoint" />
            <mxPoint x="450" y="400" as="targetPoint" />
          </mxGeometry>
        </mxCell>
        <mxCell id="Ry5fizoQan9zgRVknk1M-3" value="Iterator" style="swimlane;whiteSpace=wrap;html=1;startSize=23;" vertex="1" parent="1">
          <mxGeometry x="690" y="80" width="200" height="150" as="geometry" />
        </mxCell>
        <mxCell id="Ry5fizoQan9zgRVknk1M-27" value="+ next() :Object" style="text;html=1;align=center;verticalAlign=middle;resizable=0;points=[];autosize=1;strokeColor=none;fillColor=none;" vertex="1" parent="Ry5fizoQan9zgRVknk1M-3">
          <mxGeometry x="25" y="80" width="110" height="30" as="geometry" />
        </mxCell>
        <mxCell id="Ry5fizoQan9zgRVknk1M-26" value="+ hasNext() :boolean" style="text;html=1;align=center;verticalAlign=middle;resizable=0;points=[];autosize=1;strokeColor=none;fillColor=none;" vertex="1" parent="Ry5fizoQan9zgRVknk1M-3">
          <mxGeometry x="25" y="60" width="140" height="30" as="geometry" />
        </mxCell>
        <mxCell id="Ry5fizoQan9zgRVknk1M-4" value="" style="endArrow=none;html=1;rounded=0;exitX=0;exitY=0.25;exitDx=0;exitDy=0;entryX=1;entryY=0.25;entryDx=0;entryDy=0;" edge="1" parent="1" source="Ry5fizoQan9zgRVknk1M-3" target="Ry5fizoQan9zgRVknk1M-3">
          <mxGeometry width="50" height="50" relative="1" as="geometry">
            <mxPoint x="820" y="460" as="sourcePoint" />
            <mxPoint x="870" y="410" as="targetPoint" />
          </mxGeometry>
        </mxCell>
        <mxCell id="Ry5fizoQan9zgRVknk1M-5" value="&amp;lt;&amp;lt;interface&amp;gt;&amp;gt;" style="text;html=1;align=center;verticalAlign=middle;resizable=0;points=[];autosize=1;strokeColor=none;fillColor=none;" vertex="1" parent="1">
          <mxGeometry x="375" y="50" width="100" height="30" as="geometry" />
        </mxCell>
        <mxCell id="Ry5fizoQan9zgRVknk1M-6" value="&amp;lt;&amp;lt;interface&amp;gt;&amp;gt;" style="text;html=1;align=center;verticalAlign=middle;resizable=0;points=[];autosize=1;strokeColor=none;fillColor=none;" vertex="1" parent="1">
          <mxGeometry x="740" y="50" width="100" height="30" as="geometry" />
        </mxCell>
        <mxCell id="Ry5fizoQan9zgRVknk1M-19" style="edgeStyle=orthogonalEdgeStyle;rounded=0;orthogonalLoop=1;jettySize=auto;html=1;exitX=1;exitY=0.5;exitDx=0;exitDy=0;entryX=0;entryY=0.5;entryDx=0;entryDy=0;" edge="1" parent="1" source="Ry5fizoQan9zgRVknk1M-7" target="Ry5fizoQan9zgRVknk1M-10">
          <mxGeometry relative="1" as="geometry" />
        </mxCell>
        <mxCell id="Ry5fizoQan9zgRVknk1M-23" style="edgeStyle=orthogonalEdgeStyle;rounded=0;orthogonalLoop=1;jettySize=auto;html=1;exitX=0.5;exitY=0;exitDx=0;exitDy=0;entryX=0.5;entryY=1;entryDx=0;entryDy=0;" edge="1" parent="1" source="Ry5fizoQan9zgRVknk1M-7" target="Ry5fizoQan9zgRVknk1M-1">
          <mxGeometry relative="1" as="geometry">
            <mxPoint x="450" y="240" as="targetPoint" />
          </mxGeometry>
        </mxCell>
        <mxCell id="Ry5fizoQan9zgRVknk1M-7" value="NameRepository" style="swimlane;whiteSpace=wrap;html=1;" vertex="1" parent="1">
          <mxGeometry x="350" y="360" width="200" height="160" as="geometry" />
        </mxCell>
        <mxCell id="Ry5fizoQan9zgRVknk1M-28" value="-name :String []&lt;div&gt;&lt;br&gt;&lt;/div&gt;" style="text;html=1;align=center;verticalAlign=middle;resizable=0;points=[];autosize=1;strokeColor=none;fillColor=none;" vertex="1" parent="Ry5fizoQan9zgRVknk1M-7">
          <mxGeometry x="40" y="20" width="110" height="40" as="geometry" />
        </mxCell>
        <mxCell id="Ry5fizoQan9zgRVknk1M-29" value="+ getIterator() :Iterator" style="text;html=1;align=center;verticalAlign=middle;resizable=0;points=[];autosize=1;strokeColor=none;fillColor=none;" vertex="1" parent="Ry5fizoQan9zgRVknk1M-7">
          <mxGeometry x="25" y="80" width="140" height="30" as="geometry" />
        </mxCell>
        <mxCell id="Ry5fizoQan9zgRVknk1M-8" value="" style="endArrow=none;html=1;rounded=0;exitX=0;exitY=0.25;exitDx=0;exitDy=0;entryX=1;entryY=0.25;entryDx=0;entryDy=0;" edge="1" parent="1" source="Ry5fizoQan9zgRVknk1M-7" target="Ry5fizoQan9zgRVknk1M-7">
          <mxGeometry width="50" height="50" relative="1" as="geometry">
            <mxPoint x="410" y="460" as="sourcePoint" />
            <mxPoint x="460" y="410" as="targetPoint" />
          </mxGeometry>
        </mxCell>
        <mxCell id="Ry5fizoQan9zgRVknk1M-21" style="edgeStyle=orthogonalEdgeStyle;rounded=0;orthogonalLoop=1;jettySize=auto;html=1;exitX=0.5;exitY=0;exitDx=0;exitDy=0;entryX=0.5;entryY=1;entryDx=0;entryDy=0;" edge="1" parent="1" source="Ry5fizoQan9zgRVknk1M-10" target="Ry5fizoQan9zgRVknk1M-3">
          <mxGeometry relative="1" as="geometry" />
        </mxCell>
        <mxCell id="Ry5fizoQan9zgRVknk1M-10" value="NameIterator" style="swimlane;whiteSpace=wrap;html=1;startSize=23;" vertex="1" parent="1">
          <mxGeometry x="690" y="360" width="200" height="160" as="geometry" />
        </mxCell>
        <mxCell id="Ry5fizoQan9zgRVknk1M-31" value="+ hasNext() :boolean" style="text;html=1;align=center;verticalAlign=middle;resizable=0;points=[];autosize=1;strokeColor=none;fillColor=none;" vertex="1" parent="Ry5fizoQan9zgRVknk1M-10">
          <mxGeometry x="40" y="65" width="140" height="30" as="geometry" />
        </mxCell>
        <mxCell id="Ry5fizoQan9zgRVknk1M-32" value="+ next() :Object" style="text;html=1;align=center;verticalAlign=middle;resizable=0;points=[];autosize=1;strokeColor=none;fillColor=none;" vertex="1" parent="Ry5fizoQan9zgRVknk1M-10">
          <mxGeometry x="40" y="90" width="110" height="30" as="geometry" />
        </mxCell>
        <mxCell id="Ry5fizoQan9zgRVknk1M-11" value="" style="endArrow=none;html=1;rounded=0;exitX=0;exitY=0.25;exitDx=0;exitDy=0;entryX=1;entryY=0.25;entryDx=0;entryDy=0;" edge="1" parent="1" source="Ry5fizoQan9zgRVknk1M-10" target="Ry5fizoQan9zgRVknk1M-10">
          <mxGeometry width="50" height="50" relative="1" as="geometry">
            <mxPoint x="820" y="720" as="sourcePoint" />
            <mxPoint x="870" y="670" as="targetPoint" />
          </mxGeometry>
        </mxCell>
        <mxCell id="Ry5fizoQan9zgRVknk1M-17" style="edgeStyle=orthogonalEdgeStyle;rounded=0;orthogonalLoop=1;jettySize=auto;html=1;exitX=1;exitY=0.5;exitDx=0;exitDy=0;entryX=0;entryY=0.5;entryDx=0;entryDy=0;" edge="1" parent="1" source="Ry5fizoQan9zgRVknk1M-14" target="Ry5fizoQan9zgRVknk1M-7">
          <mxGeometry relative="1" as="geometry" />
        </mxCell>
        <mxCell id="Ry5fizoQan9zgRVknk1M-14" value="Container" style="swimlane;whiteSpace=wrap;html=1;" vertex="1" parent="1">
          <mxGeometry x="20" y="360" width="200" height="160" as="geometry" />
        </mxCell>
        <mxCell id="Ry5fizoQan9zgRVknk1M-30" value="+main :void()" style="text;html=1;align=center;verticalAlign=middle;resizable=0;points=[];autosize=1;strokeColor=none;fillColor=none;" vertex="1" parent="Ry5fizoQan9zgRVknk1M-14">
          <mxGeometry x="55" y="78" width="90" height="30" as="geometry" />
        </mxCell>
        <mxCell id="Ry5fizoQan9zgRVknk1M-15" value="" style="endArrow=none;html=1;rounded=0;exitX=0;exitY=0.25;exitDx=0;exitDy=0;entryX=1;entryY=0.25;entryDx=0;entryDy=0;" edge="1" parent="1" source="Ry5fizoQan9zgRVknk1M-14" target="Ry5fizoQan9zgRVknk1M-14">
          <mxGeometry width="50" height="50" relative="1" as="geometry">
            <mxPoint x="250" y="730" as="sourcePoint" />
            <mxPoint x="300" y="680" as="targetPoint" />
          </mxGeometry>
        </mxCell>
        <mxCell id="Ry5fizoQan9zgRVknk1M-18" value="uses" style="text;html=1;align=center;verticalAlign=middle;resizable=0;points=[];autosize=1;strokeColor=none;fillColor=none;" vertex="1" parent="1">
          <mxGeometry x="255" y="408" width="50" height="30" as="geometry" />
        </mxCell>
        <mxCell id="Ry5fizoQan9zgRVknk1M-20" value="has" style="text;html=1;align=center;verticalAlign=middle;resizable=0;points=[];autosize=1;strokeColor=none;fillColor=none;" vertex="1" parent="1">
          <mxGeometry x="600" y="408" width="40" height="30" as="geometry" />
        </mxCell>
        <mxCell id="Ry5fizoQan9zgRVknk1M-22" value="implements" style="text;html=1;align=center;verticalAlign=middle;resizable=0;points=[];autosize=1;strokeColor=none;fillColor=none;" vertex="1" parent="1">
          <mxGeometry x="700" y="298" width="80" height="30" as="geometry" />
        </mxCell>
        <mxCell id="Ry5fizoQan9zgRVknk1M-24" value="implements" style="text;html=1;align=center;verticalAlign=middle;resizable=0;points=[];autosize=1;strokeColor=none;fillColor=none;" vertex="1" parent="1">
          <mxGeometry x="360" y="298" width="80" height="30" as="geometry" />
        </mxCell>
      </root>
    </mxGraphModel>
  </diagram>
</mxfile>
